<?xml version="1.0" encoding="utf-8"?>
<!-- Generator: Adobe Illustrator 22.0.0, SVG Export Plug-In . SVG Version: 6.00 Build 0)  -->
<svg version="1.1" id="Layer_1" xmlns="http://www.w3.org/2000/svg" xmlns:xlink="http://www.w3.org/1999/xlink" x="0px" y="0px"
	 viewBox="0 0 2994.5 375.5" style="enable-background:new 0 0 2994.5 375.5;" xml:space="preserve">
<style type="text/css">
	.st0{fill:#FFFFFF;}
	.st1{fill:#FF3600;}
</style>
<g>
	<path class="st0" d="M1793.2,1.3h-526.7c-43.3,0-86.2,14.3-120.9,40.3l-134.1,100.6L877.4,41.6c-34.7-26-77.6-40.3-120.9-40.3
		H162.1l284.6,196.2c25.4,17.5,55.1,26.8,86,26.8h210.1c11.1,0,22-3.7,30.9-10.3l34.9-26.2l-34.9-26.2c-8.9-6.6-19.8-10.3-30.9-10.3
		H540.3c-20.1,0-39.4-6-55.9-17.4l-86.5-59.6h351.9c31.9,0,63.6,10.5,89.1,29.7l111.7,83.8l-111.7,83.8
		c-25.5,19.2-57.2,29.7-89.1,29.7H493.8c-29.6,0-58.2-8.7-82.8-25.2L0,0v374.3h73V135.6l300.2,203.9c33.5,22.8,72.7,34.8,113.2,34.8
		h270c43.3,0,86.2-14.3,120.9-40.3l134.1-100.6l187.8,140.9H1321l-248.7-186.5l111.7-83.8c25.5-19.2,57.2-29.7,89.1-29.7H1375v300
		h73v-300h247.8L1793.2,1.3z"/>
	<polygon class="st1" points="2921.5,1.3 2921.5,245.2 2523.8,1.5 2521.5,0.1 2521.5,301.3 2164.5,301.3 2164.5,224.3 2450.5,224.3 
		2450.5,151.3 2091.5,151.3 2091.5,374.3 2594.5,374.3 2594.5,131.4 2994.5,375.5 2994.5,1.3 	"/>
	<path class="st1" d="M1928.6,161.6l-83.6,62.7h106.5v77h-338L1876.6,104c25.5-19.2,57.2-29.7,89.1-29.7h484.8v-1.5
		c0-39.4-32.1-71.5-71.5-71.5h-420c-43.3,0-86.2,14.3-120.9,40.3l-320,240c-18,13.5-25.1,36.1-18,57.5c7.1,21.4,26.3,35.2,48.9,35.2
		h475.5v-223h-65C1948.4,151.3,1937.5,155,1928.6,161.6z"/>
</g>
</svg>
